<?xml version="1.0" encoding="UTF-8"?>
<svg width="768" height="1024" version="1.1" xmlns="http://www.w3.org/2000/svg" xmlns:cc="http://creativecommons.org/ns#" xmlns:dc="http://purl.org/dc/elements/1.1/" xmlns:rdf="http://www.w3.org/1999/02/22-rdf-syntax-ns#">
 <metadata>
  <rdf:RDF>
   <cc:Work rdf:about="">
    <dc:format>image/svg+xml</dc:format>
    <dc:type rdf:resource="http://purl.org/dc/dcmitype/StillImage"/>
    <dc:title/>
   </cc:Work>
  </rdf:RDF>
 </metadata>
 <path d="m128 64c-70.656 0-128 57.344-128 128 0 47.219 25.906 88.062 64 110.28v419.47c-38.094 22.188-64 63-64 110.25 0 70.625 57.344 128 128 128s128-57.375 128-128c0-47.25-25.844-88.062-64-110.25v-419.47c38.156-22.219 64-63.062 64-110.28 0-70.656-57.344-128-128-128zm0 832c-35.312 0-64-28.625-64-64 0-35.312 28.688-64 64-64 35.406 0 64 28.688 64 64 0 35.375-28.594 64-64 64zm0-640c-35.312 0-64-28.594-64-64s28.688-64 64-64c35.406 0 64 28.594 64 64s-28.594 64-64 64zm576 465.75v-401.75c0-192.5-192-192-192-192h-64v-128l-192 192 192 192v-128h64c56.438 0 64 64 64 64v401.75c-38.125 22.188-64 62.938-64 110.25 0 70.625 57.375 128 128 128s128-57.375 128-128c0-47.25-25.875-88.062-64-110.25zm-64 174.25c-35.312 0-64-28.625-64-64 0-35.312 28.688-64 64-64 35.375 0 64 28.688 64 64 0 35.375-28.625 64-64 64z" fill="#fff"/>
</svg>
